<svg width="835" height="803" viewBox="0 0 835 803" fill="none" xmlns="http://www.w3.org/2000/svg">
<mask id="mask0_1_70" style="mask-type:luminance" maskUnits="userSpaceOnUse" x="0" y="0" width="835" height="803">
<path d="M834.5 0.5V802.5H0.5V0.5H834.5Z" fill="white" stroke="white"/>
</mask>
<g mask="url(#mask0_1_70)">
<mask id="path-2-inside-1_1_70" fill="white">
<path d="M191.041 42.0748C221.062 50.9978 258.851 49.804 288.222 38.7317C302.222 33.4535 315.447 26.015 328.938 19.6293C354.162 7.50604 381.806 1.26132 409.788 1.36254C428.797 1.5997 444.789 5.82701 462.915 11.5547C470.592 13.98 479.843 17.4105 487.543 19.15C492.749 20.327 502.746 19.281 508.534 19.7464C528.557 21.357 548.705 27.1551 566.43 36.5961C591.726 50.071 614.783 68.5184 634.585 89.1432C648.237 103.362 661.331 119.473 677.914 130.431C691.177 139.195 707.865 140.904 722.793 145.634C733.333 148.974 739.648 152.467 748.559 158.565C743.421 158.66 737.549 158.546 732.611 159.79C740.477 165.24 746.906 165.541 754.603 169.417C750.248 170.3 745.806 170.923 741.554 171.821C752.586 177.908 767.664 184.125 779.722 188.346C767.439 186.254 762.347 186.217 750.742 190.311C755.397 199.609 757.848 206.387 760.787 216.369C763.901 226.951 774.675 236.711 784.499 241.343C779.179 240.618 774.371 240.105 769.188 238.665L768.556 238.493C777.109 258.397 783.777 281.306 807.603 286.848C803.028 288.731 798.421 290.487 793.65 291.834C801.309 299.366 805.798 303.101 816 306.952C808.623 308.646 804.919 308.813 797.456 308.984C806.332 325.516 814.917 336.55 819.924 354.942L808.717 352.889C811.307 362.038 814.109 370.007 822.883 374.891C827.827 371.849 829.734 370.487 832.928 365.504C831.193 379.388 828.784 383.822 817.797 392.353C816.714 393.197 815.623 394.034 814.533 394.864C818.566 407.573 822.82 410.384 833.446 418.032C816.549 423.938 807.901 417.834 792.19 410.485C794.89 428.734 812.1 447.64 827.921 456.35C814.839 452.185 803.365 447.299 790.966 441.344C788.368 440.095 783.894 438.16 781.089 439.073C775.267 444.864 784.332 475.723 787.23 483.285C771.769 462.459 759.109 438.197 759.387 485.189C757.214 482.947 754.602 480.053 751.258 479.933C749.002 479.852 746.866 481.126 745.349 482.711C729.843 498.909 742.56 563.317 726.975 589.565C724.411 593.88 720.756 597.504 715.464 597.688C705.353 598.039 695.29 588.879 688.371 582.465C687.444 586.594 684.787 597.78 682.863 601.252C682.767 602.998 684.385 611.06 684.812 613.53C687.83 630.994 688.573 648.584 699.456 663.323C687.96 659.73 684.858 657.885 674.83 651.655C666.218 692.376 659.299 708.849 620.008 727.926C628.792 715.364 627.748 707.411 626.155 692.705C622.586 698.443 618.885 704.511 615.058 710.046C598.426 734.108 566.348 747.484 537.978 751.984C544.093 743.947 548.927 732.901 550.775 722.964C546.583 728.271 540.201 733.79 535.019 738.173C511.311 758.227 490.241 764.544 460.929 771.073C468.89 763.112 470.592 755.633 472.479 744.849C457.834 755.154 443.562 765.499 427.707 773.935C401.752 787.748 372.67 795.857 344.016 801.917C343.821 784.977 335.416 773.077 322.23 763.23C322.102 772.503 320.611 776.862 316.848 785.04C309.82 777.34 307.485 769.45 299.11 761.805C281.025 745.297 259.832 742.645 240.354 727.095C242.599 739.573 247.245 747.124 252.327 758.606C243.698 754.791 233.9 751.656 225.017 748.014C201.978 738.567 180.823 724.236 166.515 703.5C160.741 695.133 157.007 686.45 151.495 677.846C148.95 689.228 149.629 698.521 153.324 709.664C130.898 692.145 113.709 655.571 105.627 628.742C102.953 619.866 101.197 611.227 98.8384 602.313C93.0452 611.495 89.4815 623.3 88.7572 634.102C80.7156 614.213 77.0144 593.609 80.1482 572.252C74.0561 578.611 70.0328 584.833 67.1986 593.161C62.9542 557.023 65.4324 543.884 85.3779 512.917C76.3876 515.099 72.1937 515.901 64.4259 521.131C69.8573 511.844 76.1883 502.194 83.6844 494.514C97.7522 480.104 114.546 469.534 127.439 453.902C130.057 450.729 133.1 447.597 135.056 443.922C125.904 451.388 118.82 463.024 107.092 468.699C107.53 466.928 108.876 461.965 108.874 460.44C104.206 463.698 99.5972 467.241 94.734 470.195C90.1078 473.007 84.5563 475.592 79.0424 474.071C76.8666 473.471 75.3424 471.874 74.3387 469.901C67.8502 457.149 79.6247 414.911 83.015 401C84.8427 393.502 86.3157 385.825 88.5327 378.437L75.8224 389.918C84.5092 375.882 93.2759 355.624 84.6818 339.839C75.9374 323.778 55.8612 334.834 45.3065 340.902C50.6094 336.757 81.5616 309.852 70.8351 303.885C66.9309 303.835 63.5899 306.103 60.1333 307.976C65.1647 297.623 82.7113 279.967 56.9513 284.606C67.0737 274.288 55.4813 270.84 46.9414 269.112C42.5826 268.23 37.9664 267.021 33.6195 265.976C39.4145 265.933 49.2261 263.889 55.274 262.827C31.731 259.559 19.2874 256.691 -1.28027 245.115C10.2178 245.082 22.514 242.67 32.9736 237.843C26.8612 237.077 19.3344 235.451 13.1734 234.277C26.1647 231.022 37.5288 224.217 49.3576 218.112C70.1578 207.376 92.6669 194.792 110.444 179.351C107.367 179.31 103.115 178.778 99.9677 178.476C120.45 170.763 125.018 168.21 138.896 151.367C128.078 158.293 116.942 163.7 104.255 166.303C97.793 167.628 91.5462 168.305 85.053 169.785C105.145 161.643 121.1 148.432 136.369 133.442C141.596 128.31 146.892 123.784 151.807 118.211C146.144 119.198 142.768 119.841 137.318 121.715L137.636 119.663C151.392 108.954 158.92 112.281 169.418 96.3215C160.959 94.7453 155.647 94.9494 147.417 98.2485C152.73 93.4886 156.469 90.2586 162.689 86.4186C168.21 83.0112 174.583 80.0205 179.975 76.6138C169.415 73.9147 164.538 71.551 155.881 65.2595C170.302 70.2797 179.836 67.9339 194.25 64.436C186.365 58.5921 180.77 54.7062 175.911 45.8933C186.287 50.4372 191.245 51.6954 202.213 53.3397C198.225 49.8527 194.676 45.932 191.041 42.0748ZM605.271 467.287C606.255 469.486 607.022 471.665 608.615 473.424C608.833 471.872 606.788 468.58 605.914 467.036L605.271 467.287Z"/>
</mask>
<path d="M191.041 42.0748C221.062 50.9978 258.851 49.804 288.222 38.7317C302.222 33.4535 315.447 26.015 328.938 19.6293C354.162 7.50604 381.806 1.26132 409.788 1.36254C428.797 1.5997 444.789 5.82701 462.915 11.5547C470.592 13.98 479.843 17.4105 487.543 19.15C492.749 20.327 502.746 19.281 508.534 19.7464C528.557 21.357 548.705 27.1551 566.43 36.5961C591.726 50.071 614.783 68.5184 634.585 89.1432C648.237 103.362 661.331 119.473 677.914 130.431C691.177 139.195 707.865 140.904 722.793 145.634C733.333 148.974 739.648 152.467 748.559 158.565C743.421 158.66 737.549 158.546 732.611 159.79C740.477 165.24 746.906 165.541 754.603 169.417C750.248 170.3 745.806 170.923 741.554 171.821C752.586 177.908 767.664 184.125 779.722 188.346C767.439 186.254 762.347 186.217 750.742 190.311C755.397 199.609 757.848 206.387 760.787 216.369C763.901 226.951 774.675 236.711 784.499 241.343C779.179 240.618 774.371 240.105 769.188 238.665L768.556 238.493C777.109 258.397 783.777 281.306 807.603 286.848C803.028 288.731 798.421 290.487 793.65 291.834C801.309 299.366 805.798 303.101 816 306.952C808.623 308.646 804.919 308.813 797.456 308.984C806.332 325.516 814.917 336.55 819.924 354.942L808.717 352.889C811.307 362.038 814.109 370.007 822.883 374.891C827.827 371.849 829.734 370.487 832.928 365.504C831.193 379.388 828.784 383.822 817.797 392.353C816.714 393.197 815.623 394.034 814.533 394.864C818.566 407.573 822.82 410.384 833.446 418.032C816.549 423.938 807.901 417.834 792.19 410.485C794.89 428.734 812.1 447.64 827.921 456.35C814.839 452.185 803.365 447.299 790.966 441.344C788.368 440.095 783.894 438.16 781.089 439.073C775.267 444.864 784.332 475.723 787.23 483.285C771.769 462.459 759.109 438.197 759.387 485.189C757.214 482.947 754.602 480.053 751.258 479.933C749.002 479.852 746.866 481.126 745.349 482.711C729.843 498.909 742.56 563.317 726.975 589.565C724.411 593.88 720.756 597.504 715.464 597.688C705.353 598.039 695.29 588.879 688.371 582.465C687.444 586.594 684.787 597.78 682.863 601.252C682.767 602.998 684.385 611.06 684.812 613.53C687.83 630.994 688.573 648.584 699.456 663.323C687.96 659.73 684.858 657.885 674.83 651.655C666.218 692.376 659.299 708.849 620.008 727.926C628.792 715.364 627.748 707.411 626.155 692.705C622.586 698.443 618.885 704.511 615.058 710.046C598.426 734.108 566.348 747.484 537.978 751.984C544.093 743.947 548.927 732.901 550.775 722.964C546.583 728.271 540.201 733.79 535.019 738.173C511.311 758.227 490.241 764.544 460.929 771.073C468.89 763.112 470.592 755.633 472.479 744.849C457.834 755.154 443.562 765.499 427.707 773.935C401.752 787.748 372.67 795.857 344.016 801.917C343.821 784.977 335.416 773.077 322.23 763.23C322.102 772.503 320.611 776.862 316.848 785.04C309.82 777.34 307.485 769.45 299.11 761.805C281.025 745.297 259.832 742.645 240.354 727.095C242.599 739.573 247.245 747.124 252.327 758.606C243.698 754.791 233.9 751.656 225.017 748.014C201.978 738.567 180.823 724.236 166.515 703.5C160.741 695.133 157.007 686.45 151.495 677.846C148.95 689.228 149.629 698.521 153.324 709.664C130.898 692.145 113.709 655.571 105.627 628.742C102.953 619.866 101.197 611.227 98.8384 602.313C93.0452 611.495 89.4815 623.3 88.7572 634.102C80.7156 614.213 77.0144 593.609 80.1482 572.252C74.0561 578.611 70.0328 584.833 67.1986 593.161C62.9542 557.023 65.4324 543.884 85.3779 512.917C76.3876 515.099 72.1937 515.901 64.4259 521.131C69.8573 511.844 76.1883 502.194 83.6844 494.514C97.7522 480.104 114.546 469.534 127.439 453.902C130.057 450.729 133.1 447.597 135.056 443.922C125.904 451.388 118.82 463.024 107.092 468.699C107.53 466.928 108.876 461.965 108.874 460.44C104.206 463.698 99.5972 467.241 94.734 470.195C90.1078 473.007 84.5563 475.592 79.0424 474.071C76.8666 473.471 75.3424 471.874 74.3387 469.901C67.8502 457.149 79.6247 414.911 83.015 401C84.8427 393.502 86.3157 385.825 88.5327 378.437L75.8224 389.918C84.5092 375.882 93.2759 355.624 84.6818 339.839C75.9374 323.778 55.8612 334.834 45.3065 340.902C50.6094 336.757 81.5616 309.852 70.8351 303.885C66.9309 303.835 63.5899 306.103 60.1333 307.976C65.1647 297.623 82.7113 279.967 56.9513 284.606C67.0737 274.288 55.4813 270.84 46.9414 269.112C42.5826 268.23 37.9664 267.021 33.6195 265.976C39.4145 265.933 49.2261 263.889 55.274 262.827C31.731 259.559 19.2874 256.691 -1.28027 245.115C10.2178 245.082 22.514 242.67 32.9736 237.843C26.8612 237.077 19.3344 235.451 13.1734 234.277C26.1647 231.022 37.5288 224.217 49.3576 218.112C70.1578 207.376 92.6669 194.792 110.444 179.351C107.367 179.31 103.115 178.778 99.9677 178.476C120.45 170.763 125.018 168.21 138.896 151.367C128.078 158.293 116.942 163.7 104.255 166.303C97.793 167.628 91.5462 168.305 85.053 169.785C105.145 161.643 121.1 148.432 136.369 133.442C141.596 128.31 146.892 123.784 151.807 118.211C146.144 119.198 142.768 119.841 137.318 121.715L137.636 119.663C151.392 108.954 158.92 112.281 169.418 96.3215C160.959 94.7453 155.647 94.9494 147.417 98.2485C152.73 93.4886 156.469 90.2586 162.689 86.4186C168.21 83.0112 174.583 80.0205 179.975 76.6138C169.415 73.9147 164.538 71.551 155.881 65.2595C170.302 70.2797 179.836 67.9339 194.25 64.436C186.365 58.5921 180.77 54.7062 175.911 45.8933C186.287 50.4372 191.245 51.6954 202.213 53.3397C198.225 49.8527 194.676 45.932 191.041 42.0748ZM605.271 467.287C606.255 469.486 607.022 471.665 608.615 473.424C608.833 471.872 606.788 468.58 605.914 467.036L605.271 467.287Z" fill="black" stroke="white" stroke-width="10" mask="url(#path-2-inside-1_1_70)"/>
<path d="M605.997 467.968C606.405 468.676 606.898 469.536 607.322 470.4C607.588 470.942 607.819 471.477 607.984 471.964C607.182 470.752 606.616 469.398 605.997 467.968Z" fill="#66676D" fill-opacity="0.988235" stroke="white" stroke-width="0.78486"/>
<path d="M178.351 435.594C174.479 441.16 171.509 446.167 168.688 451.072C166.793 454.368 164.965 457.614 162.975 460.956C163.159 460.599 163.348 460.233 163.543 459.858C165.172 456.727 167.165 453.075 169.099 449.596C171.033 446.117 172.906 442.814 174.297 440.38C174.992 439.163 175.567 438.163 175.968 437.468C176.168 437.121 176.324 436.85 176.431 436.665C176.484 436.573 176.525 436.502 176.553 436.454C176.559 436.443 176.565 436.433 176.57 436.424C176.969 436.005 177.298 435.827 177.663 435.724C177.875 435.664 178.093 435.627 178.351 435.594Z" fill="#B0B1B2" stroke="white" stroke-width="0.78486"/>
<path d="M630.902 526.553C630.907 526.556 630.91 526.559 630.914 526.562C630.914 526.565 630.916 526.568 630.917 526.571C630.925 526.611 630.932 526.655 630.945 526.733C630.97 526.878 631.008 527.079 631.085 527.37C631.492 531.103 632.378 535.968 633.056 540.74C633.46 543.583 633.789 546.399 633.911 548.96C632.83 541.925 631.411 534.905 630.074 527.947L630.855 526.523C630.872 526.534 630.887 526.543 630.902 526.553Z" fill="#DADBDC" stroke="white" stroke-width="0.78486"/>
<path d="M138.158 470.121C134.48 475.262 130.326 480.857 126.806 486.17C130.29 479.634 133.283 475.759 137.937 469.735L138.158 470.121Z" fill="#DADBDC" stroke="white" stroke-width="0.78486"/>
<path d="M159.729 510.689C158.003 513.849 154.686 519.664 153.315 522.814L153.269 522.793C154.82 518.169 156.67 514.364 159.028 510.115L159.729 510.689Z" fill="#B0B1B2" stroke="white" stroke-width="0.78486"/>
<path d="M567.387 587.094C567.478 587.926 567.666 588.707 568.03 589.349C567.928 591.908 567.581 594.163 567.033 596.485C567.139 593.321 567.272 590.235 567.387 587.094Z" fill="#DADBDC" stroke="white" stroke-width="0.78486"/>
<path d="M595.858 501.211C597.767 504.606 598.783 507.152 599.817 510.44C598.137 507.556 596.661 504.908 595.24 501.641L595.858 501.211Z" fill="#B0B1B2" stroke="white" stroke-width="0.78486"/>
<path d="M227.475 409.835C225.854 412.285 223.608 415.747 221.591 418.61C221.962 417.917 222.352 417.192 222.735 416.469C223.44 415.139 224.127 413.822 224.656 412.747C224.921 412.21 225.149 411.729 225.32 411.336C225.449 411.042 225.552 410.778 225.615 410.571C226.145 410.247 226.485 410.098 226.841 409.992C227.031 409.936 227.23 409.889 227.475 409.835Z" fill="#B0B1B2" stroke="white" stroke-width="0.78486"/>
<path d="M656.437 581.861C657.396 586.278 658.417 590.912 658.571 595.351L658.533 595.417L658.214 595.03C658.246 593.347 657.918 590.931 657.498 588.534C657.081 586.159 656.568 583.767 656.209 582.064L656.437 581.861Z" fill="#B0B1B2" stroke="white" stroke-width="0.78486"/>
<path d="M125.307 488.778C124.377 490.661 123.391 492.652 122.191 494.217C122.531 493.395 123.159 492.26 123.848 491.113C124.343 490.287 124.862 489.469 125.307 488.778Z" fill="#414143" stroke="white" stroke-width="0.78486"/>
<path d="M658.291 596.357L658.655 596.798L658.887 596.386C659.004 596.859 659.072 597.414 659.074 597.982C659.077 598.596 659.003 599.191 658.863 599.688C658.654 599.234 658.518 598.66 658.431 598.009C658.357 597.456 658.321 596.897 658.289 596.355L658.291 596.357Z" fill="#414143" stroke="white" stroke-width="0.78486"/>
<path d="M153.028 523.546C152.764 524.293 152.493 525.124 152.163 525.934C152.008 526.312 151.845 526.669 151.672 526.993C151.763 526.614 151.883 526.228 152.026 525.836C152.312 525.052 152.657 524.295 152.985 523.527L153.028 523.546Z" fill="#414143" stroke="white" stroke-width="0.78486"/>
<path d="M353.529 492.132C359.323 491.227 367.894 492.638 375.315 495.834C379.02 497.429 382.418 499.461 385.028 501.852C387.638 504.244 389.442 506.975 390.005 509.973C391.395 517.377 391.728 525.74 391.866 534.182C392.003 542.612 391.943 551.129 392.556 558.792L393.333 558.832C394.193 554.131 394.826 548.179 395.691 541.953C396.557 535.711 397.658 529.168 399.456 523.225C401.255 517.279 403.743 511.966 407.361 508.16C410.965 504.366 415.707 502.051 422.074 502.113C427.74 502.168 434.706 504.267 441.603 507.789C448.494 511.308 455.284 516.231 460.596 521.897C465.912 527.567 469.723 533.953 470.713 540.397C471.665 546.597 470.012 552.89 464.488 558.715C464.331 556.52 464.152 554.308 463.82 552.259C463.443 549.941 462.867 547.798 461.885 546.107C460.896 544.404 459.491 543.15 457.477 542.649C455.479 542.152 452.935 542.407 449.686 543.598L449.636 543.617L449.594 543.647C444.461 547.286 441.179 552.082 438.638 557.359C436.106 562.618 434.287 568.412 432.124 573.996C429.953 579.601 427.422 585.039 423.446 589.705C419.6 594.218 414.388 598.023 406.807 600.544L406.068 600.783C393.662 604.618 380.244 603.385 368.744 597.352H368.745C364.526 595.131 361.814 592.81 359.304 590.263C356.805 587.728 354.447 584.903 351.026 581.784C350.019 580.866 348.787 579.96 347.48 579.044C346.164 578.121 344.78 577.193 343.43 576.21C340.726 574.241 338.268 572.125 337.046 569.645L337.042 569.636L337.036 569.627C334.929 565.873 334.398 561.205 334.059 556.464C333.723 551.763 333.576 546.967 332.17 543.123C327.32 529.859 322.894 516.967 318.723 503.487C330.592 498.159 340.612 494.241 353.529 492.132Z" fill="#FEFEFE" stroke="white" stroke-width="0.78486"/>
<path d="M248.418 475.147C252.447 487.164 254.322 500.295 255.874 513.547C257.591 528.206 258.914 543.022 262.342 556.549C264.406 564.693 266.67 570.767 270.179 575.838C273.656 580.863 278.338 584.872 285.194 588.944C285.104 590.774 284.869 592.829 284.61 594.928C284.342 597.108 284.048 599.337 283.876 601.38C283.431 606.642 284.992 611.609 287.366 616.258C289.738 620.902 292.94 625.264 295.801 629.305C311.841 651.959 332.148 662.58 359.064 666.596C382.13 670.036 406.807 668.582 426.064 653.859C428.894 651.696 432.36 649.036 435.27 645.971C438.175 642.909 440.566 639.402 441.188 635.532C441.452 633.888 441.645 631.997 441.844 630.07C442.033 628.232 442.228 626.357 442.49 624.605C457.272 621.524 467.599 610.714 475.764 597.685C479.873 591.128 483.444 583.994 486.764 576.975C489.998 570.139 492.988 563.427 496.016 557.432L496.359 557.801C493.054 564.929 490.463 572.134 487.955 579.143C485.417 586.238 482.965 593.129 479.936 599.575C473.885 612.45 465.543 623.521 449.667 630.741L449.46 630.835L449.439 631.06C449.38 631.666 449.32 632.273 449.259 632.879L449.07 634.696C447.757 646.94 444.984 656.877 440.19 665.655C435.565 674.125 429.047 681.535 420.108 688.902C421.761 683.297 423.008 678.583 424.277 672.733L423.571 672.427C417.466 681.219 412.431 686.9 406.541 691.471C400.916 695.835 394.492 699.198 385.57 703.284C389.784 697.21 392.112 693.379 395.403 686.277L394.794 685.812C386.51 692.809 379.93 695.308 373.719 698.327C367.637 701.283 361.965 704.72 355.56 713.296C352.825 703.753 349.127 698.474 344.704 694.141C342.445 691.928 339.996 689.961 337.418 687.811C334.836 685.658 332.11 683.309 329.265 680.312L328.781 679.796L328.115 680.163C329.546 685.66 331.107 691.123 332.793 696.548C324.784 689.808 319.229 684.681 314.431 678.902C309.432 672.881 305.243 666.137 299.963 656.098L299.224 656.274C299.067 665.134 299.889 670.929 301.558 678.985C295.758 670.914 291.957 664.454 289.206 657.606C286.288 650.341 284.544 642.622 282.865 632.05L282.091 632.045C281.288 636.755 280.612 641.486 280.064 646.233C273.213 631.868 270.865 612.562 273.626 597.016L273.66 596.825L273.528 596.681C262.487 584.669 257.67 569.732 255.373 553.966C253.073 538.178 253.307 521.65 252.32 506.391C251.643 495.902 250.019 485.513 248.418 475.147Z" fill="#FEFEFE" stroke="white" stroke-width="0.78486"/>
<path d="M306.568 507.649C307.458 508.09 308.173 508.66 308.808 509.463C309.017 509.729 309.407 510.454 309.943 511.587C310.472 512.701 311.124 514.168 311.857 515.876C313.324 519.291 315.111 523.66 316.875 528.087C320.409 536.953 323.833 546.007 324.416 548.098C325.438 551.763 326.323 556.221 325.846 559.969C325.311 564.175 322.538 567.224 319.155 569.632C316.751 570.689 314.219 571.578 311.723 572.493C310.49 571.298 309.23 570.142 308.16 568.868C307.045 567.54 306.164 566.112 305.773 564.44C304.078 557.171 302.582 546.061 302.385 535.169C302.286 529.724 302.512 524.341 303.196 519.525C303.858 514.869 304.948 510.765 306.568 507.649Z" fill="#FEFEFE" stroke="white" stroke-width="0.78486"/>
<path d="M303.322 592.869C303.531 593.121 303.753 593.408 303.984 593.726C304.585 594.553 305.23 595.554 305.867 596.597C306.503 597.638 307.128 598.715 307.69 599.691C308.25 600.664 308.75 601.543 309.132 602.178C313.451 609.368 321.821 615.318 331.074 619.899C340.338 624.486 350.544 627.728 358.605 629.474C365.032 630.865 375.196 632.041 385.403 632.5C395.603 632.958 405.895 632.702 412.562 631.207C413.486 631 414.712 630.476 416.06 629.794C417.417 629.108 418.925 628.246 420.422 627.347C422.463 626.12 424.492 624.812 426.097 623.77L423.707 626.869C417.043 634.066 412.242 637.323 406.989 638.337C401.705 639.357 395.905 638.126 387.168 636.158L387.148 636.153L387.128 636.151L386.531 636.086C383.535 635.781 380.336 635.785 377.168 635.811C373.779 635.839 370.427 635.893 367.345 635.63C354.575 634.538 339.884 630.464 327.689 623.182C315.882 616.13 306.45 606.093 303.322 592.869Z" fill="#FEFEFE" stroke="white" stroke-width="0.78486"/>
<path d="M338.965 585.256C342.401 585.61 343.876 586.185 345.132 587.229C345.784 587.772 346.386 588.448 347.174 589.331C347.958 590.207 348.908 591.267 350.239 592.541C350.9 593.173 351.997 594.005 353.24 594.935C354.492 595.873 355.91 596.923 357.244 598.007C358.579 599.094 359.814 600.202 360.705 601.253C361.611 602.323 362.092 603.255 362.066 603.996C361.989 606.196 361.046 608.259 359.7 610.175C358.406 612.017 356.757 613.697 355.196 615.209C353.233 614.33 351.747 613.428 349.857 612.314C349.255 611.749 348.834 610.916 348.556 609.887C348.275 608.845 348.148 607.633 348.113 606.371C348.043 603.836 348.342 601.188 348.449 599.356L347.713 599.145C346.402 601.555 344.416 604.762 342.05 606.427C340.878 607.252 339.648 607.673 338.38 607.472C337.108 607.271 335.715 606.432 334.244 604.563C333.166 603.194 332.542 601.083 332.301 598.841C332.062 596.608 332.21 594.305 332.627 592.598C333.114 590.6 333.876 589.257 334.923 588.167C335.957 587.089 337.283 586.241 338.965 585.256Z" fill="#FEFEFE" stroke="white" stroke-width="0.78486"/>
<path d="M453.173 547.915C454.011 548.135 454.821 548.359 455.442 548.774L455.443 548.775C455.813 549.022 456.201 549.566 456.504 550.222C456.767 550.79 456.937 551.379 456.982 551.818L456.993 551.997C457.056 555.253 455.954 559.385 454.113 563.926C452.275 568.459 449.714 573.364 446.895 578.153C441.273 587.702 434.638 596.759 430.701 601.445L429.3 602.371L428.768 602.214C428.226 601.076 428.268 599.437 428.746 597.451C429.239 595.399 430.174 593.065 431.263 590.709C432.351 588.355 433.583 585.998 434.665 583.896C435.74 581.805 436.677 579.948 437.152 578.623C441.767 565.742 443.389 557.722 453.173 547.915Z" fill="#FEFEFE" stroke="white" stroke-width="0.78486"/>
<path d="M318.965 575.836C322.861 575.714 325.258 576.782 327.044 578.637C328.864 580.526 330.078 583.253 331.534 586.543C330.622 590.734 329.124 594.711 327.557 598.726C326.75 599.585 325.952 599.961 325.191 600.003C324.409 600.046 323.6 599.744 322.787 599.123C321.148 597.873 319.61 595.416 318.486 592.455C317.366 589.506 316.677 586.117 316.696 583.057C316.714 580.051 317.413 577.437 318.965 575.836Z" fill="#FEFEFE" stroke="white" stroke-width="0.78486"/>
<path d="M421.447 602.259C422.395 604.561 421.568 607.124 419.973 609.566C418.367 612.023 416.046 614.256 414.268 615.788C412.729 617.114 411.509 618.013 410.183 618.541C408.906 619.05 407.502 619.223 405.578 619.062C403.825 616.424 403.155 614.482 403.188 613.004C403.22 611.531 403.953 610.45 405.183 609.539C406.429 608.616 408.15 607.896 410.086 607.159C412.004 606.43 414.125 605.688 416.091 604.724C417.603 603.983 419.376 602.697 420.779 601.696L421.447 602.259Z" fill="#FEFEFE" stroke="white" stroke-width="0.78486"/>
<path d="M366.196 604.137C369.785 606.165 374.087 607.865 377.904 609.31C376.757 612.739 376.297 614.27 374.477 617.44C373.579 618.303 372.846 618.908 372.048 619.308C371.262 619.7 370.388 619.904 369.197 619.929C366.612 618.926 365.61 616.129 365.413 612.827C365.231 609.77 365.753 606.438 366.196 604.137Z" fill="#FEFEFE" stroke="white" stroke-width="0.78486"/>
<path d="M387.051 610.355C388.363 610.304 389.721 610.29 390.973 610.427C392.228 610.565 393.345 610.85 394.196 611.374C395.012 611.875 395.594 612.599 395.824 613.666C395.315 615.761 394.632 616.52 393.361 618.386C390.96 620.099 389.158 620.888 387.82 621.033C387.154 621.105 386.612 621.017 386.167 620.812C385.722 620.607 385.349 620.275 385.036 619.822C384.403 618.902 384.039 617.509 383.867 615.8C383.707 614.204 383.719 612.378 383.808 610.496C384.771 610.472 385.904 610.4 387.051 610.355Z" fill="#FEFEFE" stroke="white" stroke-width="0.78486"/>
<path d="M499.574 550.959C498.69 553.007 497.785 555.003 496.732 557.048L496.393 556.686C497.518 554.43 498.442 552.739 499.574 550.959Z" fill="#B0B1B2" stroke="white" stroke-width="0.78486"/>
<mask id="path-26-inside-2_1_70" fill="white">
<path d="M183.762 175.429C193.223 155.178 230.139 115.007 247.885 101.66C221.236 140.174 202.017 183.335 191.218 228.918C196.791 222.873 199.734 219.477 206.168 214.376C202.362 221.808 198.427 229.282 195.452 237.088C184.914 264.733 181.16 294.513 177.09 323.664C175.723 333.452 172.869 344.415 172.19 354.097C211.19 339.371 245.078 330.571 287.156 330.845C290.074 324.249 293.09 317.438 296.8 311.241C294.806 317.963 292.547 324.445 290.266 331.067C296.058 331.766 302.69 332.87 308.354 334.29C302.02 334.428 295.657 334.017 289.341 333.493L278.015 371.173C291.221 368.622 307.672 364.833 320.902 365.75C304.525 368.823 293.47 370.404 277.229 375.634C275.865 380.83 274.622 386.184 274.314 391.564C282.368 389.895 286.75 389.146 295.16 388.744C288.297 391.271 281.053 392.131 273.98 393.788C271.87 402.377 271.614 411.855 271.583 420.703C288.63 413.537 302.997 405.383 319.287 398.008C309.491 407.046 283.942 417.29 271.49 424.481C271.873 428.43 272.454 433.131 272.667 437.034C278.856 433.187 285.276 429.008 291.868 425.971C286.29 431.397 278.836 435.767 273.228 440.958C275.497 450.851 276.317 455.26 281.845 463.967C295.08 447.222 307.437 431.913 327.424 422.5C313.487 436.028 293.192 449.86 284.037 466.807C290.295 472.354 296.186 475.668 304.878 475.06C327.461 473.269 344.548 455.481 362.562 443.717C375.31 435.392 387.651 429.02 402.147 424.526C416.459 420.088 423.763 419.561 435.455 430.04C444.94 438.543 453.153 447.566 460.047 458.368C472.456 477.476 484.119 519.071 512.539 518.009C517.109 517.839 520.399 516.653 524.476 514.898C521.839 505.778 519.723 498.972 515.949 490.24C511.695 480.4 506.278 470.421 502.328 460.562C512.698 473.943 525.107 496.623 526.772 513.479C533.542 509.162 539.223 504.735 543.596 497.81C540.465 491.616 536.469 485.193 533.679 479.087C539.396 485.145 540.911 488.401 545.202 495.273C547.549 491.521 550.167 487.515 552.344 483.695C543.978 473.721 524.903 452.05 519.074 442.202C524.439 447.264 530.215 454.451 535.21 460.01C541.41 466.912 547.822 473.809 553.707 480.956C557.317 472.163 559.812 464.771 562.515 455.657C556.183 450.575 549.558 446.02 543.246 440.959C550.36 444.136 557.195 447.9 563.684 452.211C564.639 447.231 565.678 442.267 566.8 437.322C554.787 426.736 543.319 420.507 531.248 411.174C545.302 417.07 554.464 423.523 566.878 432.524C569.535 418.16 569.148 399.019 569.067 384.391C564.032 382.528 556.306 379.893 551.804 377.484C557.905 378.567 563.216 379.48 569.178 381.292C568.989 378.552 568.623 375.002 568.909 372.345C569.579 375.405 570.188 378.477 570.734 381.561C607.367 397.251 624.428 409.195 655.136 434.738C656.31 424.46 657.999 410.254 660.268 400.341C668.525 364.289 672.369 339.743 665.247 303.342C669.033 307.328 673.206 316.602 675.507 321.712C675.891 308.804 676.226 295.898 676.716 282.98C677.987 249.535 675.217 213.505 665.226 181.578C680.123 205.212 693.002 240.701 699.452 267.955C696.473 263.808 693.543 256.209 691.172 251.432C688.675 246.403 686.735 243.38 683.639 238.797C686.205 253.022 688.131 267.239 690.491 281.481C691.862 289.765 695.318 298.816 698.368 306.669C694.732 302.824 690.551 296.676 687.518 292.229C688.818 300.925 691.851 335.289 688.232 341.922C687.486 331.95 686.487 318.245 683.974 308.613C680.667 355.603 670.4 395.06 663.1 441.16C672.256 450.184 685.568 463.013 693.361 472.903L692.41 473.355C681.402 461.591 674.85 454.923 662.721 444.345C658.254 489.378 654.188 539.254 684.428 577.898C685.421 579.167 687.303 581.431 688.371 582.465C687.444 586.594 684.787 597.78 682.863 601.252C680.802 596.607 677.116 593.616 674.549 589.526C645.549 543.284 647.034 489.223 654.563 437.691C632.438 418.993 598.256 395.69 571.342 385.438C572.053 392.814 572.666 400.2 573.18 407.593C582.229 415.827 591.177 424.171 600.024 432.621C611.092 443.322 615.888 449.857 629.033 458.488C624.386 457.073 620.534 454.346 616.789 451.296C601.63 438.956 590.852 425.338 572.864 416.602C585.768 428.752 599.202 450.72 605.914 467.036L605.271 467.287C595.115 450.21 588.723 439.403 574.007 425.437C573.821 429.389 573.643 433.077 573.254 437.026C591.031 454.719 608.898 471.912 620.146 494.763C624.06 502.715 626.345 511.229 630.188 519.019C633.045 524.81 637.624 530.842 640.726 536.651C648.43 551.08 652.542 565.41 656.679 581.121L655.779 581.923C651.138 565.043 642.334 541.346 631.472 527.3C631.158 526.126 631.501 526.466 630.708 525.977L629.662 527.883C625.154 509.603 587.746 474.849 572.487 462.626C582.601 476.152 588.159 485.947 595.99 500.642L594.752 501.503C588.818 491.085 576.533 472.884 567.995 464.478C566.105 473.399 564.271 478.498 560.136 486.761C586.005 518.783 609.2 544.17 618.303 586.544C619.923 594.08 621.673 606.2 620.951 613.785C619.137 602.57 618.603 594.907 615.567 583.441C606.382 548.753 582.797 515.738 557.576 490.725C555.079 494.816 552.999 498.171 550.19 502.087C552.933 509.822 556.762 516.739 559.605 524.106C567.093 543.508 570.903 568.489 568.428 589.253C566.688 586.424 568.843 579.844 567.232 577.563C566.856 554.224 558.859 525.627 547.754 505.287C540.205 512.992 536.947 516.297 528.446 522.78C530.888 536.288 529.436 558.306 523.346 570.483C527.836 549.906 528.246 545.088 526.313 524.026C521.461 525.79 517.002 527.222 511.738 527.623C480.118 529.22 468.229 488.187 454.667 466.544C446.988 454.292 441.027 446.539 429.221 437.997C427.207 436.539 423.685 433.3 421.227 432.958C402.729 430.379 381.028 442.398 365.449 451.657C345.669 464.166 329.323 484.539 305.017 487.245C293.99 488.473 285.43 482.931 277.651 476.257C271.048 488.067 268.076 499.289 265.05 512.302C264.957 497.806 269.725 486.931 275.747 474.161C269.308 463.153 267.493 458.792 265.302 446.166C244.704 464.561 226.446 484.254 216.425 510.437C213.59 517.841 211.654 525.493 209.391 533.101C209.44 532.32 209.5 531.539 209.572 530.76C210.232 523.486 212.201 517.149 214.535 510.314C224.421 481.393 241.852 461.827 264.826 442.66C263.961 438.465 263.528 433.405 263.044 429.091C260.365 430.388 257.459 431.794 254.746 432.977C216.069 449.846 181.284 473.095 160.23 510.593L158.913 509.512C184.35 465.087 218.706 445.685 262.635 423.58C262.799 415.565 263.769 408.019 264.885 400.098C259.413 405.667 255.493 410.068 250.699 416.166C253.666 408.928 257.259 403.742 262.019 397.701C253.963 399.95 245.995 402.498 238.13 405.341C235.198 406.415 230.843 408.495 228.341 409.236C226.876 409.596 226.529 409.53 225.28 410.316C212.394 415.678 188.912 425.423 179.18 435.095C177.838 435.283 177.166 435.212 176.255 436.186C161.387 446.514 150.03 455.889 138.626 470.146L137.984 469.032C144.596 459.445 153.926 449.474 163.042 442.18C167.95 437.965 175.38 433.869 179.822 429.365C196.212 412.751 209.89 399.417 231.46 389.409C244.085 383.553 258.893 378.513 270.714 370.864C272.381 367.031 273.723 362.233 274.979 358.184C246.244 364.725 232.231 369.797 205.485 383.448C225.386 367.859 254.503 358.387 278.187 350.773C280.455 345.224 282.837 339.723 285.327 334.271C248.683 333.902 205.923 344.119 171.72 356.893C163.352 390.058 156.074 416.352 135.056 443.922C125.904 451.388 118.82 463.024 107.092 468.699C107.53 466.928 108.876 461.965 108.874 460.44C113.777 455.661 120.102 449.699 124.336 444.443C142.765 421.568 154.539 390.295 159.944 361.647L159.882 359.705C164.136 351.328 167.785 318.878 169.379 308.014C171.963 289.744 174.834 271.517 177.994 253.339C180.828 237.85 184.708 226.436 188.439 211.575C180.695 222.586 177.907 231.057 171.949 242.704C174.499 229.129 183.619 208.982 189.819 196.604L175.281 206.737C180.898 199.617 188.172 190.893 192.798 183.319C199.519 172.317 205.036 160.002 211.295 148.647C198.504 159.321 194.39 162.859 183.762 175.429Z"/>
</mask>
<path d="M183.762 175.429C193.223 155.178 230.139 115.007 247.885 101.66C221.236 140.174 202.017 183.335 191.218 228.918C196.791 222.873 199.734 219.477 206.168 214.376C202.362 221.808 198.427 229.282 195.452 237.088C184.914 264.733 181.16 294.513 177.09 323.664C175.723 333.452 172.869 344.415 172.19 354.097C211.19 339.371 245.078 330.571 287.156 330.845C290.074 324.249 293.09 317.438 296.8 311.241C294.806 317.963 292.547 324.445 290.266 331.067C296.058 331.766 302.69 332.87 308.354 334.29C302.02 334.428 295.657 334.017 289.341 333.493L278.015 371.173C291.221 368.622 307.672 364.833 320.902 365.75C304.525 368.823 293.47 370.404 277.229 375.634C275.865 380.83 274.622 386.184 274.314 391.564C282.368 389.895 286.75 389.146 295.16 388.744C288.297 391.271 281.053 392.131 273.98 393.788C271.87 402.377 271.614 411.855 271.583 420.703C288.63 413.537 302.997 405.383 319.287 398.008C309.491 407.046 283.942 417.29 271.49 424.481C271.873 428.43 272.454 433.131 272.667 437.034C278.856 433.187 285.276 429.008 291.868 425.971C286.29 431.397 278.836 435.767 273.228 440.958C275.497 450.851 276.317 455.26 281.845 463.967C295.08 447.222 307.437 431.913 327.424 422.5C313.487 436.028 293.192 449.86 284.037 466.807C290.295 472.354 296.186 475.668 304.878 475.06C327.461 473.269 344.548 455.481 362.562 443.717C375.31 435.392 387.651 429.02 402.147 424.526C416.459 420.088 423.763 419.561 435.455 430.04C444.94 438.543 453.153 447.566 460.047 458.368C472.456 477.476 484.119 519.071 512.539 518.009C517.109 517.839 520.399 516.653 524.476 514.898C521.839 505.778 519.723 498.972 515.949 490.24C511.695 480.4 506.278 470.421 502.328 460.562C512.698 473.943 525.107 496.623 526.772 513.479C533.542 509.162 539.223 504.735 543.596 497.81C540.465 491.616 536.469 485.193 533.679 479.087C539.396 485.145 540.911 488.401 545.202 495.273C547.549 491.521 550.167 487.515 552.344 483.695C543.978 473.721 524.903 452.05 519.074 442.202C524.439 447.264 530.215 454.451 535.21 460.01C541.41 466.912 547.822 473.809 553.707 480.956C557.317 472.163 559.812 464.771 562.515 455.657C556.183 450.575 549.558 446.02 543.246 440.959C550.36 444.136 557.195 447.9 563.684 452.211C564.639 447.231 565.678 442.267 566.8 437.322C554.787 426.736 543.319 420.507 531.248 411.174C545.302 417.07 554.464 423.523 566.878 432.524C569.535 418.16 569.148 399.019 569.067 384.391C564.032 382.528 556.306 379.893 551.804 377.484C557.905 378.567 563.216 379.48 569.178 381.292C568.989 378.552 568.623 375.002 568.909 372.345C569.579 375.405 570.188 378.477 570.734 381.561C607.367 397.251 624.428 409.195 655.136 434.738C656.31 424.46 657.999 410.254 660.268 400.341C668.525 364.289 672.369 339.743 665.247 303.342C669.033 307.328 673.206 316.602 675.507 321.712C675.891 308.804 676.226 295.898 676.716 282.98C677.987 249.535 675.217 213.505 665.226 181.578C680.123 205.212 693.002 240.701 699.452 267.955C696.473 263.808 693.543 256.209 691.172 251.432C688.675 246.403 686.735 243.38 683.639 238.797C686.205 253.022 688.131 267.239 690.491 281.481C691.862 289.765 695.318 298.816 698.368 306.669C694.732 302.824 690.551 296.676 687.518 292.229C688.818 300.925 691.851 335.289 688.232 341.922C687.486 331.95 686.487 318.245 683.974 308.613C680.667 355.603 670.4 395.06 663.1 441.16C672.256 450.184 685.568 463.013 693.361 472.903L692.41 473.355C681.402 461.591 674.85 454.923 662.721 444.345C658.254 489.378 654.188 539.254 684.428 577.898C685.421 579.167 687.303 581.431 688.371 582.465C687.444 586.594 684.787 597.78 682.863 601.252C680.802 596.607 677.116 593.616 674.549 589.526C645.549 543.284 647.034 489.223 654.563 437.691C632.438 418.993 598.256 395.69 571.342 385.438C572.053 392.814 572.666 400.2 573.18 407.593C582.229 415.827 591.177 424.171 600.024 432.621C611.092 443.322 615.888 449.857 629.033 458.488C624.386 457.073 620.534 454.346 616.789 451.296C601.63 438.956 590.852 425.338 572.864 416.602C585.768 428.752 599.202 450.72 605.914 467.036L605.271 467.287C595.115 450.21 588.723 439.403 574.007 425.437C573.821 429.389 573.643 433.077 573.254 437.026C591.031 454.719 608.898 471.912 620.146 494.763C624.06 502.715 626.345 511.229 630.188 519.019C633.045 524.81 637.624 530.842 640.726 536.651C648.43 551.08 652.542 565.41 656.679 581.121L655.779 581.923C651.138 565.043 642.334 541.346 631.472 527.3C631.158 526.126 631.501 526.466 630.708 525.977L629.662 527.883C625.154 509.603 587.746 474.849 572.487 462.626C582.601 476.152 588.159 485.947 595.99 500.642L594.752 501.503C588.818 491.085 576.533 472.884 567.995 464.478C566.105 473.399 564.271 478.498 560.136 486.761C586.005 518.783 609.2 544.17 618.303 586.544C619.923 594.08 621.673 606.2 620.951 613.785C619.137 602.57 618.603 594.907 615.567 583.441C606.382 548.753 582.797 515.738 557.576 490.725C555.079 494.816 552.999 498.171 550.19 502.087C552.933 509.822 556.762 516.739 559.605 524.106C567.093 543.508 570.903 568.489 568.428 589.253C566.688 586.424 568.843 579.844 567.232 577.563C566.856 554.224 558.859 525.627 547.754 505.287C540.205 512.992 536.947 516.297 528.446 522.78C530.888 536.288 529.436 558.306 523.346 570.483C527.836 549.906 528.246 545.088 526.313 524.026C521.461 525.79 517.002 527.222 511.738 527.623C480.118 529.22 468.229 488.187 454.667 466.544C446.988 454.292 441.027 446.539 429.221 437.997C427.207 436.539 423.685 433.3 421.227 432.958C402.729 430.379 381.028 442.398 365.449 451.657C345.669 464.166 329.323 484.539 305.017 487.245C293.99 488.473 285.43 482.931 277.651 476.257C271.048 488.067 268.076 499.289 265.05 512.302C264.957 497.806 269.725 486.931 275.747 474.161C269.308 463.153 267.493 458.792 265.302 446.166C244.704 464.561 226.446 484.254 216.425 510.437C213.59 517.841 211.654 525.493 209.391 533.101C209.44 532.32 209.5 531.539 209.572 530.76C210.232 523.486 212.201 517.149 214.535 510.314C224.421 481.393 241.852 461.827 264.826 442.66C263.961 438.465 263.528 433.405 263.044 429.091C260.365 430.388 257.459 431.794 254.746 432.977C216.069 449.846 181.284 473.095 160.23 510.593L158.913 509.512C184.35 465.087 218.706 445.685 262.635 423.58C262.799 415.565 263.769 408.019 264.885 400.098C259.413 405.667 255.493 410.068 250.699 416.166C253.666 408.928 257.259 403.742 262.019 397.701C253.963 399.95 245.995 402.498 238.13 405.341C235.198 406.415 230.843 408.495 228.341 409.236C226.876 409.596 226.529 409.53 225.28 410.316C212.394 415.678 188.912 425.423 179.18 435.095C177.838 435.283 177.166 435.212 176.255 436.186C161.387 446.514 150.03 455.889 138.626 470.146L137.984 469.032C144.596 459.445 153.926 449.474 163.042 442.18C167.95 437.965 175.38 433.869 179.822 429.365C196.212 412.751 209.89 399.417 231.46 389.409C244.085 383.553 258.893 378.513 270.714 370.864C272.381 367.031 273.723 362.233 274.979 358.184C246.244 364.725 232.231 369.797 205.485 383.448C225.386 367.859 254.503 358.387 278.187 350.773C280.455 345.224 282.837 339.723 285.327 334.271C248.683 333.902 205.923 344.119 171.72 356.893C163.352 390.058 156.074 416.352 135.056 443.922C125.904 451.388 118.82 463.024 107.092 468.699C107.53 466.928 108.876 461.965 108.874 460.44C113.777 455.661 120.102 449.699 124.336 444.443C142.765 421.568 154.539 390.295 159.944 361.647L159.882 359.705C164.136 351.328 167.785 318.878 169.379 308.014C171.963 289.744 174.834 271.517 177.994 253.339C180.828 237.85 184.708 226.436 188.439 211.575C180.695 222.586 177.907 231.057 171.949 242.704C174.499 229.129 183.619 208.982 189.819 196.604L175.281 206.737C180.898 199.617 188.172 190.893 192.798 183.319C199.519 172.317 205.036 160.002 211.295 148.647C198.504 159.321 194.39 162.859 183.762 175.429Z" fill="#FEFEFE" stroke="white" stroke-width="1.56972" mask="url(#path-26-inside-2_1_70)"/>
<path d="M573.609 443.475C580.405 447.602 589.391 457.094 597.685 467.422C606.162 477.976 613.868 489.339 617.718 496.589C618.327 497.736 619.766 500.43 620.978 503.086C621.585 504.415 622.131 505.725 622.488 506.822C622.667 507.371 622.796 507.858 622.862 508.262C622.867 508.294 622.869 508.326 622.874 508.356L622.515 508.029C609.388 490.431 588.134 469.893 570.647 456.66C571.739 453.083 572.807 447.332 573.609 443.475Z" fill="black" stroke="white" stroke-width="0.78486"/>
<path d="M244.528 387.494C242.914 389.301 239.887 392.785 236.815 396.101C235.218 397.825 233.614 399.499 232.198 400.86C230.95 402.059 229.869 402.993 229.076 403.515L228.753 403.713C222.401 407.301 215.683 410.344 208.937 413.467C202.397 416.494 195.835 419.597 189.59 423.332C206.172 406.305 223.552 397.402 244.48 387.412L244.528 387.494Z" fill="black" stroke="white" stroke-width="0.78486"/>
<path d="M267.528 379.273C267.556 379.282 267.591 379.294 267.647 379.313C267.712 379.335 267.795 379.359 267.903 379.392C267.914 379.583 267.911 379.836 267.888 380.148C267.856 380.598 267.791 381.145 267.699 381.762C267.515 382.995 267.228 384.49 266.91 386.013C266.307 388.9 265.598 391.864 265.26 393.345C252.68 396.437 246.696 398.041 234.403 402.544L233.98 402.603L233.973 402.57C242.761 391.862 254.279 384.37 267.092 379.341C267.173 379.326 267.24 379.313 267.296 379.302C267.362 379.288 267.406 379.28 267.443 379.273C267.514 379.26 267.509 379.266 267.495 379.263C267.495 379.263 267.503 379.265 267.528 379.273Z" fill="black" stroke="white" stroke-width="0.78486"/>
<path d="M159.543 361.387C146.594 366.664 136.621 371.918 124.79 377.906C128.887 375.287 134.098 372.25 139.398 369.404C146.943 365.353 154.625 361.714 159.506 360.225L159.543 361.387Z" fill="#DADBDC" stroke="white" stroke-width="0.78486"/>
<path d="M699.169 480.143C701.189 482.252 702.611 484.192 704.044 486.534C703.366 485.871 702.671 485.11 701.998 484.312C700.84 482.94 699.762 481.482 698.944 480.297L699.169 480.143Z" fill="#414143" stroke="white" stroke-width="0.78486"/>
<path d="M693.266 473.383C695.155 475.465 696.868 477.393 698.646 479.55L698.465 479.674C696.689 477.585 694.885 475.522 693.052 473.484L693.266 473.383Z" fill="#B0B1B2" stroke="white" stroke-width="0.78486"/>
<path d="M428.666 210.86C433.766 210.576 439.263 211.551 444.776 212.876C450.26 214.193 455.819 215.874 460.894 216.945C471.604 219.206 483.05 220.799 493.255 224.492H493.257C499.62 226.767 505.607 229.978 511.023 234.021C520.99 241.457 530.845 255.19 536.266 270.055C541.689 284.928 542.637 300.828 534.955 312.662C530.839 319.003 522.317 321.401 514.487 320.135C506.662 318.871 499.713 313.982 498.641 305.954C498.194 302.606 500.09 299.8 502.682 297.183C503.974 295.879 505.411 294.648 506.779 293.431C508.14 292.222 509.434 291.025 510.402 289.812C512.633 287.378 513.449 284.82 513.222 282.379C512.995 279.944 511.736 277.677 509.921 275.807C506.304 272.082 500.36 269.816 495.483 270.919C468.478 277.032 461.707 314.378 485.864 329.514C493.894 334.545 500.079 335.943 506.352 335.44C512.58 334.94 518.892 332.56 527.107 330.118C528.211 329.789 529.209 329.911 530.029 330.47C530.27 332.681 529.28 335.519 527.785 338.263C526.263 341.058 524.262 343.672 522.686 345.282C520.381 347.637 517.773 349.422 515.036 351.052C513.667 351.868 512.27 352.643 510.862 353.432C509.455 354.221 508.04 355.023 506.643 355.89C503.03 358.132 499.574 360.915 496.052 363.358C492.728 365.664 489.301 367.702 485.476 368.844L484.705 369.061C480.509 370.158 476.148 370.15 471.732 370.235C467.334 370.319 462.89 370.497 458.63 372.01C451.162 374.664 443.174 379.955 436.333 384.212C440.78 365.919 444.388 346.416 447.734 327.921L447.736 327.91L447.737 327.897C448.308 323.014 449.108 318.634 449.848 314.163C450.587 309.695 451.266 305.144 451.591 299.948L450.859 299.729C449.555 302.02 447.522 305.782 446.774 308.319C443.178 320.492 440.367 332.852 437.508 345.189C434.711 357.255 431.865 369.299 428.195 381.153C425.545 376.97 422.627 372.04 419.265 367.665C415.707 363.035 411.607 358.966 406.708 357.017C390.72 350.657 385.597 341.86 375.919 328.063C373.526 324.652 367.96 318.07 363.864 311.193C361.821 307.763 360.171 304.301 359.483 301.177C358.81 298.128 359.065 295.464 360.685 293.447C360.911 293.467 361.201 293.541 361.554 293.681C361.992 293.855 362.497 294.116 363.052 294.446C364.161 295.105 365.436 296.021 366.722 297.01C368.007 297.998 369.295 299.053 370.429 299.989C371.558 300.92 372.545 301.74 373.214 302.247L373.216 302.249C383.219 309.736 396.591 312.426 408.743 310.617C418.127 309.219 425.365 304.468 429.819 297.773C434.27 291.081 435.926 282.471 434.198 273.38L434.197 273.378L433.943 272.139C432.595 265.912 430.167 259.262 424.712 255.358C421.407 252.992 416.562 251.823 411.955 252.118C407.352 252.412 402.894 254.178 400.445 257.793C398.373 260.852 398.616 264.505 399.479 268.091C399.911 269.889 400.507 271.697 401.065 273.428C401.623 275.162 402.143 276.816 402.445 278.341C403.114 283.146 402.302 286.004 400.421 287.89C398.508 289.809 395.418 290.804 391.309 291.681C376.882 294.761 363.441 283.635 361.421 269.452C360.817 265.212 361.946 259.478 364.012 253.929C366.076 248.387 369.05 243.098 372.072 239.754C387.535 222.649 405.467 213.176 428.666 210.86Z" fill="#FEFEFE" stroke="white" stroke-width="0.78486"/>
<path d="M357.359 57.9776C367.639 59.5335 380.153 64.3535 387.166 71.8096C398.211 83.5539 398.897 96.5113 398.717 111.643L398.705 112.637L399.393 111.918C403.482 107.645 405.155 105.311 406.374 102.85C406.979 101.629 407.471 100.379 408.089 98.8692C408.599 97.6239 409.201 96.1887 410.031 94.418C410.079 101.449 409.64 106.477 408.513 111.337C407.297 116.58 405.278 121.644 402.183 128.837L402.818 129.273C407.125 125.079 410.55 120.713 414.114 116.053C408.566 139.272 398.978 152.598 386.889 163.772C380.681 169.51 373.815 174.681 366.475 180.341C359.14 185.997 351.343 192.136 343.303 199.793C330.591 211.9 320.771 225.092 310.265 237.701C300.127 249.869 289.33 261.518 274.624 271.244C280.266 262.974 283.158 257.807 285.364 252.38C287.703 246.624 289.274 240.569 292.559 230.241L292.797 229.492L292.055 229.751C287.798 231.241 284.925 232.036 282.015 232.387C279.251 232.72 276.438 232.652 272.351 232.382C274.811 228.63 276.365 225.693 278.072 221.445L278.133 221.296L278.071 221.147L277.8 220.503L277.742 220.366L277.609 220.302C277.236 220.122 276.712 220.02 276.153 219.957C275.582 219.893 274.931 219.867 274.28 219.858C273.627 219.85 272.965 219.859 272.372 219.869C271.776 219.879 271.255 219.89 270.872 219.884C265.69 219.799 262.409 219.171 257.763 217.453C258.257 217.122 258.754 216.789 259.191 216.429C259.83 215.901 260.388 215.278 260.736 214.405L260.813 214.211L260.695 214.038C260.486 213.733 260.124 213.525 259.729 213.37C259.321 213.21 258.815 213.083 258.249 212.975C257.117 212.758 255.677 212.608 254.162 212.454C252.64 212.3 251.034 212.141 249.542 211.908C248.498 211.745 247.525 211.546 246.685 211.294C249.581 210.236 251.584 209.379 253.43 208.243C255.487 206.977 257.332 205.375 259.998 202.801L260.929 201.901L259.656 202.132C254.407 203.082 250.234 203.09 245.027 203.098C251.392 194.723 254.811 189.784 257.995 179.506L258.237 178.726L257.476 179.024C252.398 181.025 248.903 182.248 245.333 182.996C241.993 183.696 238.573 183.979 233.715 184.084C244.27 174.036 248.841 166.368 255.453 153.11C259.648 144.701 266.498 135.867 272.798 128.933L272.357 128.308C266.52 130.757 261.162 133.469 255.589 136.294C270.941 116.875 293.313 106.261 318.01 106.379L318.154 105.62C312.383 103.389 308.184 102.16 303.894 101.486C299.958 100.869 295.958 100.721 290.615 100.689C299.063 95.883 306.234 92.9497 313.636 91.5772C321.404 90.137 329.453 90.4092 339.529 92.0713L340.39 92.2129L339.924 91.4746C336.689 86.3412 334.388 83.0448 331.577 80.2266C328.899 77.5408 325.769 75.3052 320.958 72.3164C331.166 69.1049 338.832 67.5138 346.364 67.6895C354.093 67.8698 361.715 69.9092 371.828 74.0186L372.993 74.4922L372.304 73.4395C368.2 67.1783 362.876 62.7086 357.359 57.9776Z" fill="#FEFEFE" stroke="white" stroke-width="0.78486"/>
<path d="M331.864 127.27C344.528 127.751 351.095 137.159 356.494 147.602L357.155 148.88L357.235 147.443C357.533 142.053 357.459 138.226 356.916 133.3C359.388 138.738 360.694 142.673 361.313 146.718C362.015 151.305 361.839 156.055 361.447 163.332L361.412 163.966L361.994 163.713C364.631 162.569 367.602 161.061 370.283 159.741C361.941 176.666 350.272 186.948 333.967 195.329C337.568 191.187 340.44 187.73 343.856 183.088L344.584 182.098L343.416 182.483C340.844 183.331 338.289 184.312 335.761 185.251C329.394 187.621 321.508 189.996 313.892 190.482C306.274 190.968 298.988 189.561 293.741 184.441C291.137 181.899 289.269 180.043 287.705 178.69C286.136 177.332 284.849 176.46 283.395 175.892C281.944 175.326 280.355 175.074 278.2 174.919C276.293 174.782 273.904 174.717 270.749 174.585C277.642 170.061 283.015 165.013 287.763 160.091C292.76 154.911 297.029 149.914 301.677 145.764C306.31 141.628 311.282 138.372 317.629 136.706C323.979 135.038 331.741 134.951 341.964 137.209L343.105 137.461L342.347 136.572C339.022 132.665 335.735 130.256 331.864 127.27Z" fill="black" stroke="white" stroke-width="0.78486"/>
<path d="M333.666 149.127V149.128C335.364 149.154 337.072 149.476 338.546 150.028C340.026 150.582 341.241 151.357 341.986 152.265C342.72 153.159 342.996 154.174 342.642 155.285C342.285 156.407 341.265 157.687 339.26 159.05L338.229 159.093C336.098 159.16 334.25 158.939 332.797 158.478C331.339 158.016 330.316 157.326 329.776 156.484C329.247 155.662 329.141 154.635 329.635 153.392C330.125 152.158 331.205 150.723 333.03 149.126C333.241 149.125 333.453 149.124 333.666 149.127Z" fill="#FEFEFE" stroke="white" stroke-width="0.78486"/>
<path d="M295.715 168.891C295.937 169.285 296.186 169.794 296.458 170.387C297.004 171.573 297.628 173.06 298.287 174.585C298.943 176.104 299.634 177.656 300.308 178.95C300.645 179.597 300.982 180.187 301.311 180.679C301.591 181.096 301.877 181.458 302.164 181.726C302.165 181.905 302.167 182.084 302.168 182.263C299.174 180.73 296.981 178.925 295.809 176.721C294.652 174.543 294.459 171.915 295.574 168.651C295.618 168.724 295.666 168.803 295.715 168.891Z" fill="#FEFEFE" stroke="white" stroke-width="0.78486"/>
<path d="M570.866 109.118C576.913 108.426 582.728 109.104 588.683 110.139C580.215 113.376 577.622 113.289 569.056 118.986L567.868 119.777L569.293 119.705C579.769 119.177 587.663 120.463 594.894 123.445C601.928 126.346 608.356 130.864 615.94 136.929C610.359 137.958 606.883 138.865 603.661 140.345C600.285 141.895 597.204 144.062 592.277 147.597L591.542 148.123L592.428 148.3C603.249 150.461 610.369 153.004 616.651 156.99C622.607 160.77 627.831 165.86 634.751 173.21C630.078 171.404 626.606 170.193 623.063 169.4C619.119 168.518 615.101 168.156 609.249 168.051L609.066 168.794C621.261 174.89 630.33 181.386 637.483 189.6C644.246 197.367 649.311 206.69 653.68 218.709C649.545 213.759 645.811 210.038 640.888 205.502L640.255 205.931C645.462 219.518 647.969 230.92 649.877 245.378C650.948 253.486 654.59 263.023 657.927 270.652C648.175 266.182 643.88 263.1 636.026 255.743L635.342 255.103L635.365 256.039C635.639 267.493 637.569 272.936 641.208 283.247C639.754 282.236 637.918 280.784 636.195 279.438C635.134 278.61 634.119 277.824 633.276 277.221C632.854 276.919 632.47 276.659 632.142 276.46C631.823 276.267 631.525 276.112 631.285 276.047L631.005 275.972L630.85 276.216L630.382 276.954L630.314 277.061L630.322 277.187C630.456 279.497 631.215 281.925 632.169 284.275C632.998 286.316 633.986 288.33 634.861 290.168C631.773 289.143 629.598 288.122 626.822 286.634L625.475 285.902C625.154 285.724 624.961 285.608 624.745 285.486C624.547 285.375 624.368 285.282 624.174 285.215C623.777 285.076 623.373 285.065 622.682 285.096L622.438 285.106L622.34 285.331L621.97 286.182L621.917 286.305L621.949 286.434C622.751 289.626 624.122 291.426 626.102 293.595C621.464 293.62 618.568 293.473 615.791 292.891C612.837 292.271 610 291.159 605.332 289.209L604.747 288.964L604.789 289.597C605.177 295.437 605.783 298.114 607.436 303.478C603.265 302.281 600.708 301.429 598.347 300.21C595.858 298.924 593.571 297.223 589.838 294.242L589.254 293.775L589.203 294.521C588.515 304.437 587.959 311.025 588.211 317.581C588.449 323.769 589.406 329.922 591.634 338.828C591.523 338.691 591.411 338.555 591.301 338.416L591.298 338.413L590.479 337.369C582.08 326.448 576.017 311.275 570.625 295.621C565.07 279.492 560.224 262.842 554.274 249.971C548.919 238.388 542.031 227.691 535.573 216.869C529.107 206.036 523.064 195.062 519.345 182.876C514.994 168.618 515.529 157.389 516.975 143.416C517.916 149.12 519.621 154.755 522.612 159.762L523.339 159.531C522.738 151.693 522.805 146.259 523.647 140.99C524.405 136.245 525.796 131.619 527.912 125.474C527.956 128.986 527.997 131.719 528.388 134.369C528.861 137.573 529.843 140.653 531.935 144.877L532.388 145.791L532.665 144.808C535.63 134.28 539.626 126.007 545.642 120.045C551.65 114.089 559.708 110.404 570.866 109.118Z" fill="#FEFEFE" stroke="white" stroke-width="0.78486"/>
<path d="M561.603 181.893C561.524 182.254 561.406 182.708 561.255 183.229C560.929 184.354 560.465 185.772 559.971 187.216C558.979 190.116 557.891 193.061 557.568 193.99L558.241 194.368C563.22 188.328 567.292 185.329 571.916 184.009C576.083 182.819 580.739 182.98 586.997 183.595C582.142 184.81 579.881 185.448 574.901 188.368L573.969 188.915L575.035 189.094L575.668 189.199C589.274 191.492 597.245 196.004 602.961 202.887C607.984 208.935 611.286 216.835 615.099 226.78L616.771 231.168C618.755 236.386 623.89 243.956 627.455 248.996C623.5 247.849 619.229 246.757 615.303 245.689L615.193 245.659L615.084 245.693C612.426 246.516 609.248 248.176 606.732 249.392C596.954 253.493 588.553 252.074 580.81 248.124C573.036 244.158 565.953 237.659 558.817 231.602L557.901 230.823L558.182 231.992C559.755 238.543 561.11 241.684 563.757 247.001C550.69 234.829 543.744 217.011 541.625 199.438C543.592 202.098 545.846 204.593 547.984 207.06L548.451 207.6L548.655 206.916C551.799 196.435 553.846 189.32 561.603 181.893Z" fill="black" stroke="white" stroke-width="0.78486"/>
<path d="M572.337 202.164C574.095 202.415 575.8 202.861 577.251 203.479C578.749 204.116 579.949 204.923 580.676 205.857C581.39 206.774 581.651 207.815 581.289 208.993C580.927 210.173 579.925 211.535 578.005 213.05C577.607 213.012 577.211 212.969 576.815 212.92H576.816C574.809 212.669 573.034 212.188 571.631 211.529C570.223 210.867 569.22 210.041 568.704 209.119C568.2 208.217 568.137 207.182 568.685 206.014C569.23 204.852 570.385 203.552 572.337 202.164Z" fill="#FEFEFE" stroke="white" stroke-width="0.78486"/>
<path d="M607.028 234.996C607.503 235.506 607.799 236 607.955 236.476C608.144 237.053 608.137 237.623 607.974 238.19C607.642 239.343 606.657 240.492 605.313 241.56C602.709 243.632 598.968 245.242 597.002 245.891L596.714 245.729C596.765 245.646 596.833 245.55 596.919 245.442C597.112 245.2 597.375 244.924 597.694 244.621C598.332 244.015 599.164 243.329 600.042 242.62C600.914 241.915 601.832 241.186 602.622 240.51C603.406 239.838 604.097 239.19 604.5 238.643C605.479 237.316 606.147 236.39 607.028 234.996Z" fill="#FEFEFE" stroke="white" stroke-width="0.78486"/>
<path d="M480.602 414.184C481.499 415.177 482.282 416.624 482.953 418.39C483.827 420.692 484.491 423.473 484.982 426.335C485.722 430.645 486.068 435.109 486.173 438.344C486.047 437.86 485.909 437.32 485.764 436.734C485.169 434.341 484.43 431.196 483.688 427.967C482.441 422.538 481.187 416.88 480.602 414.184Z" fill="#DADBDC" stroke="white" stroke-width="0.78486"/>
<path d="M374.303 385.631C374.227 385.786 374.129 385.965 374.002 386.162C373.71 386.612 373.317 387.115 372.888 387.619C372.031 388.629 371.064 389.61 370.55 390.148C365.439 395.506 361.858 400.839 357.792 406.882C358.939 403.052 361.622 398.947 364.801 395.145C367.856 391.492 371.345 388.146 374.303 385.631Z" fill="#DADBDC" stroke="white" stroke-width="0.78486"/>
<path d="M483.703 390.187C484.718 391.053 485.696 392.368 486.616 394.002C487.839 396.173 488.931 398.852 489.861 401.642C491.234 405.759 492.246 410.086 492.811 413.32C492.499 412.471 492.163 411.511 491.825 410.53C490.981 408.08 490.119 405.482 489.596 404.229C487.662 399.587 485.596 394.848 483.703 390.187Z" fill="#DADBDC" stroke="white" stroke-width="0.78486"/>
<path d="M379.561 363.688C379.188 364.091 378.75 364.552 378.258 365.056C376.656 366.693 374.511 368.782 372.295 370.905C368.47 374.567 364.491 378.277 362.67 379.99C363.239 378.714 364.236 377.272 365.519 375.759C366.978 374.04 368.786 372.253 370.702 370.546C373.725 367.853 376.999 365.374 379.561 363.688Z" fill="#FEFEFE" stroke="white" stroke-width="0.78486"/>
<path d="M369.625 411.02C369.557 411.148 369.485 411.282 369.405 411.419C368.97 412.164 368.386 413.019 367.761 413.888C366.528 415.603 365.105 417.406 364.468 418.377C361.932 422.249 359.928 425.953 357.785 429.945C357.787 428.891 358.104 427.609 358.682 426.176C359.481 424.196 360.743 422.003 362.194 419.866C364.621 416.29 367.541 412.924 369.625 411.02Z" fill="#DADBDC" stroke="white" stroke-width="0.78486"/>
<path d="M474.409 439.192C475.085 440.164 475.643 441.416 476.089 442.864C476.71 444.882 477.107 447.237 477.33 449.645C477.636 452.943 477.614 456.314 477.416 459.012C477.411 458.978 477.407 458.943 477.402 458.908C477.109 456.801 476.681 453.933 476.232 450.987C475.529 446.371 474.775 441.569 474.409 439.192Z" fill="#FEFEFE" stroke="white" stroke-width="0.78486"/>
<path d="M493.805 385.046C495.624 387.026 497.043 389.914 498.092 393.022C499.056 395.88 499.695 398.888 500.056 401.461C497.668 396.892 495.048 389.847 493.805 385.046Z" fill="#DADBDC" stroke="white" stroke-width="0.78486"/>
<path d="M374.937 353.539C374.593 353.899 374.135 354.349 373.59 354.864C372.425 355.966 370.884 357.355 369.285 358.776C366.5 361.252 363.526 363.837 362.085 365.158C362.156 364.892 362.272 364.602 362.438 364.29C362.727 363.746 363.15 363.157 363.677 362.539C364.733 361.304 366.179 359.988 367.732 358.725C370.324 356.616 373.183 354.679 374.937 353.539Z" fill="#FEFEFE" stroke="white" stroke-width="0.78486"/>
<path d="M443.507 402.993C444.611 404.976 444.996 407.327 445.003 409.787C445.011 412.474 444.57 415.242 444.169 417.734C444.144 417.633 444.119 417.518 444.094 417.391C443.998 416.904 443.916 416.281 443.846 415.56C443.706 414.118 443.619 412.312 443.568 410.468C443.489 407.653 443.491 404.768 443.507 402.993Z" fill="#FEFEFE" stroke="white" stroke-width="0.78486"/>
<path d="M411.681 394.155C411.665 394.262 411.644 394.384 411.614 394.52C411.513 394.962 411.341 395.505 411.112 396.122C410.654 397.356 409.984 398.852 409.257 400.369C407.948 403.102 406.478 405.864 405.751 407.271L405.664 407.026C406.459 401.696 408.501 398.288 411.681 394.155Z" fill="#DADBDC" stroke="white" stroke-width="0.78486"/>
<path d="M385.706 402.266C385.642 402.655 385.52 403.143 385.343 403.707C384.933 405.015 384.267 406.675 383.531 408.371C382.258 411.302 380.807 414.277 380.134 415.692C379.99 415 380.07 414.075 380.342 412.98C380.671 411.658 381.264 410.16 381.974 408.668C383.152 406.193 384.633 403.776 385.706 402.266Z" fill="#DADBDC" stroke="white" stroke-width="0.78486"/>
<path d="M463.034 423.463C464.174 424.933 464.491 427.198 464.4 429.699C464.309 432.193 463.824 434.791 463.467 436.831C463.411 436.432 463.361 435.957 463.318 435.424C463.21 434.091 463.144 432.42 463.103 430.71C463.037 427.955 463.036 425.119 463.034 423.463Z" fill="#FEFEFE" stroke="white" stroke-width="0.78486"/>
<path d="M396.71 376.145C394.472 379.4 392.008 382.522 389.573 385.66C389.546 385.592 389.512 385.512 389.468 385.415C390.475 381.887 393.682 378.38 396.705 376.114C396.707 376.124 396.709 376.134 396.71 376.145Z" fill="#FEFEFE" stroke="white" stroke-width="0.78486"/>
<path d="M369.76 344.004L369.78 344.026C368.776 344.973 367.25 346.099 365.641 347.204C363.938 348.374 362.188 349.494 360.901 350.353L360.738 350.34L360.752 350.084C362.99 347.187 366.223 345.513 369.57 343.997L369.76 344.004Z" fill="#FEFEFE" stroke="white" stroke-width="0.78486"/>
<path d="M502.077 379.226C504.976 381.858 506.382 385.107 507.651 388.855C507.391 388.555 507.113 388.2 506.825 387.797C506.118 386.809 505.375 385.584 504.664 384.31C503.664 382.519 502.737 380.645 502.077 379.226Z" fill="#FEFEFE" stroke="white" stroke-width="0.78486"/>
<path d="M397.023 402.765C396.94 403.109 396.805 403.509 396.625 403.951C396.265 404.835 395.742 405.858 395.165 406.893C394.177 408.667 393.061 410.434 392.348 411.595C392.228 411.229 392.238 410.746 392.394 410.135C392.624 409.232 393.142 408.171 393.788 407.096C394.844 405.337 396.204 403.604 397.066 402.557C397.054 402.622 397.041 402.692 397.023 402.765Z" fill="#FEFEFE" stroke="white" stroke-width="0.78486"/>
<path d="M464.522 395.251C465.519 396.365 466.086 397.992 466.408 399.804C466.675 401.313 466.764 402.899 466.812 404.335C466.779 404.236 466.743 404.135 466.709 404.03C466.385 403.019 466.051 401.778 465.733 400.503C465.257 398.596 464.823 396.627 464.522 395.251Z" fill="#FEFEFE" stroke="white" stroke-width="0.78486"/>
<path d="M407.984 381.147C407.887 381.359 407.775 381.587 407.645 381.826C407.224 382.603 406.658 383.468 406.046 384.336C405.101 385.676 404.063 386.998 403.283 387.996C403.325 387.646 403.432 387.261 403.6 386.846C403.928 386.034 404.469 385.161 405.11 384.308C406.01 383.107 407.087 381.976 407.984 381.147Z" fill="#DADBDC" stroke="white" stroke-width="0.78486"/>
<path d="M471.425 388.693C472.482 389.542 473.01 390.382 473.299 391.316C473.611 392.324 473.653 393.45 473.716 394.889C472.472 393.106 471.878 390.902 471.425 388.693Z" fill="#B0B1B2" stroke="white" stroke-width="0.78486"/>
<path d="M452.568 394.526C453.148 395.491 453.482 396.703 453.675 398.018C453.861 399.29 453.911 400.609 453.949 401.838C453.907 401.723 453.865 401.602 453.824 401.475C453.56 400.651 453.335 399.63 453.145 398.569C452.888 397.14 452.702 395.66 452.568 394.526Z" fill="#FEFEFE" stroke="white" stroke-width="0.78486"/>
<path d="M453.918 420.388C454.142 421.421 454.221 422.521 454.218 423.649C454.215 424.947 454.104 426.257 453.994 427.534C453.544 425.269 453.689 422.783 453.918 420.388Z" fill="#FEFEFE" stroke="white" stroke-width="0.78486"/>
<path d="M392.258 368.058C391.784 368.858 391.122 369.637 390.382 370.398C389.689 371.112 388.958 371.783 388.264 372.444L388.288 372.047C389.472 370.129 390.474 369.38 392.18 367.967L392.258 368.058Z" fill="#DADBDC" stroke="white" stroke-width="0.78486"/>
<path d="M136.965 121.428L132.761 123.015C134.172 122.085 135.551 121.225 137.128 120.376L136.965 121.428Z" fill="black" stroke="white" stroke-width="0.78486"/>
</g>
</svg>
